<svg xmlns="http://www.w3.org/2000/svg" viewBox="0 0 100 100">
  <rect width="100" height="100" rx="22" fill="#2f2418"/>
  <path d="M50 12 C42 30 42 52 50 70 C58 52 58 30 50 12Z" fill="none" stroke="#d6a33d" stroke-width="4"/>
  <path d="M50 28 L50 58" stroke="#d6a33d" stroke-width="4" stroke-linecap="round"/>
  <path d="M42 65 C35 54 30 48 18 44 C26 62 36 70 50 76" fill="none" stroke="#d6a33d" stroke-width="4"/>
  <path d="M58 65 C65 54 70 48 82 44 C74 62 64 70 50 76" fill="none" stroke="#d6a33d" stroke-width="4"/>
  <path d="M50 58 C43 64 43 72 50 78 C57 72 57 64 50 58Z" fill="#d6a33d"/>
</svg>